<?xml version='1.0' encoding='utf-8'?>
<svg xmlns="http://www.w3.org/2000/svg" width="459pt" height="528pt" viewBox="0.00 0.00 459.00 528.00" role="img" aria-labelledby="figure-title figure-description">
<title id="figure-title">Boot chain and evidence levels</title><desc id="figure-description">Historical reference boot paths; not proof for a different board or source revision. Solid arrows show the stated sequence or relationship; dashed arrows are conditional or unconfirmed. SoC Boot ROM; QSPI SPL; QSPI U-Boot; Selected eMMC slot 5 or 6; Genuine zImage and DTB; External Rescue V2 initramfs; Normal SysV init; Separate owner S98 hook.</desc><g id="graph0" class="graph" transform="scale(1 1) rotate(0) translate(14.4 513.9)">
<title>G</title>
<polygon fill="white" stroke="none" points="-14.4,14.4 -14.4,-513.9 444.6,-513.9 444.6,14.4 -14.4,14.4" />
<text xml:space="preserve" text-anchor="middle" x="215.1" y="-479.35" font-family="DejaVu Sans" font-size="17.00">Boot chain and evidence levels</text>

<g id="node1" class="node">
<title>rom</title>
<path fill="#eef3f8" stroke="#415a77" d="M220.16,-470.5C220.16,-470.5 143.75,-470.5 143.75,-470.5 137.75,-470.5 131.75,-464.5 131.75,-458.5 131.75,-458.5 131.75,-446.5 131.75,-446.5 131.75,-440.5 137.75,-434.5 143.75,-434.5 143.75,-434.5 220.16,-434.5 220.16,-434.5 226.16,-434.5 232.16,-440.5 232.16,-446.5 232.16,-446.5 232.16,-458.5 232.16,-458.5 232.16,-464.5 226.16,-470.5 220.16,-470.5" />
<text xml:space="preserve" text-anchor="middle" x="181.95" y="-448.8" font-family="DejaVu Sans" font-size="11.00">SoC Boot ROM</text>
</g>

<g id="node2" class="node">
<title>spl</title>
<path fill="#eef3f8" stroke="#415a77" d="M204.41,-401.5C204.41,-401.5 159.5,-401.5 159.5,-401.5 153.5,-401.5 147.5,-395.5 147.5,-389.5 147.5,-389.5 147.5,-377.5 147.5,-377.5 147.5,-371.5 153.5,-365.5 159.5,-365.5 159.5,-365.5 204.41,-365.5 204.41,-365.5 210.41,-365.5 216.41,-371.5 216.41,-377.5 216.41,-377.5 216.41,-389.5 216.41,-389.5 216.41,-395.5 210.41,-401.5 204.41,-401.5" />
<text xml:space="preserve" text-anchor="middle" x="181.95" y="-379.8" font-family="DejaVu Sans" font-size="11.00">QSPI SPL</text>
</g>

<g id="edge1" class="edge">
<title>rom-&gt;spl</title>
<path fill="none" stroke="#415a77" d="M181.95,-434.25C181.95,-427.89 181.95,-420.5 181.95,-413.39" />
<polygon fill="#415a77" stroke="#415a77" points="185.46,-413.44 181.96,-403.44 178.46,-413.44 185.46,-413.44" />
</g>

<g id="node3" class="node">
<title>ub</title>
<path fill="#eef3f8" stroke="#415a77" d="M213.41,-332.5C213.41,-332.5 150.5,-332.5 150.5,-332.5 144.5,-332.5 138.5,-326.5 138.5,-320.5 138.5,-320.5 138.5,-308.5 138.5,-308.5 138.5,-302.5 144.5,-296.5 150.5,-296.5 150.5,-296.5 213.41,-296.5 213.41,-296.5 219.41,-296.5 225.41,-302.5 225.41,-308.5 225.41,-308.5 225.41,-320.5 225.41,-320.5 225.41,-326.5 219.41,-332.5 213.41,-332.5" />
<text xml:space="preserve" text-anchor="middle" x="181.95" y="-310.8" font-family="DejaVu Sans" font-size="11.00">QSPI U-Boot</text>
</g>

<g id="edge2" class="edge">
<title>spl-&gt;ub</title>
<path fill="none" stroke="#415a77" d="M181.95,-365.25C181.95,-358.89 181.95,-351.5 181.95,-344.39" />
<polygon fill="#415a77" stroke="#415a77" points="185.46,-344.44 181.96,-334.44 178.46,-344.44 185.46,-344.44" />
</g>

<g id="node4" class="node">
<title>emmc</title>
<path fill="#eef3f8" stroke="#415a77" d="M252.41,-263.5C252.41,-263.5 111.5,-263.5 111.5,-263.5 105.5,-263.5 99.5,-257.5 99.5,-251.5 99.5,-251.5 99.5,-239.5 99.5,-239.5 99.5,-233.5 105.5,-227.5 111.5,-227.5 111.5,-227.5 252.41,-227.5 252.41,-227.5 258.41,-227.5 264.41,-233.5 264.41,-239.5 264.41,-239.5 264.41,-251.5 264.41,-251.5 264.41,-257.5 258.41,-263.5 252.41,-263.5" />
<text xml:space="preserve" text-anchor="middle" x="181.95" y="-241.8" font-family="DejaVu Sans" font-size="11.00">Selected eMMC slot 5 or 6</text>
</g>

<g id="edge3" class="edge">
<title>ub-&gt;emmc</title>
<path fill="none" stroke="#415a77" d="M181.95,-296.25C181.95,-289.89 181.95,-282.5 181.95,-275.39" />
<polygon fill="#415a77" stroke="#415a77" points="185.46,-275.44 181.96,-265.44 178.46,-275.44 185.46,-275.44" />
</g>

<g id="node5" class="node">
<title>kernel</title>
<path fill="#eef3f8" stroke="#415a77" d="M249.41,-194.5C249.41,-194.5 114.5,-194.5 114.5,-194.5 108.5,-194.5 102.5,-188.5 102.5,-182.5 102.5,-182.5 102.5,-170.5 102.5,-170.5 102.5,-164.5 108.5,-158.5 114.5,-158.5 114.5,-158.5 249.41,-158.5 249.41,-158.5 255.41,-158.5 261.41,-164.5 261.41,-170.5 261.41,-170.5 261.41,-182.5 261.41,-182.5 261.41,-188.5 255.41,-194.5 249.41,-194.5" />
<text xml:space="preserve" text-anchor="middle" x="181.95" y="-172.8" font-family="DejaVu Sans" font-size="11.00">Genuine zImage and DTB</text>
</g>

<g id="edge4" class="edge">
<title>emmc-&gt;kernel</title>
<path fill="none" stroke="#415a77" d="M181.95,-227.25C181.95,-220.89 181.95,-213.5 181.95,-206.39" />
<polygon fill="#415a77" stroke="#415a77" points="185.46,-206.44 181.96,-196.44 178.46,-206.44 185.46,-206.44" />
</g>

<g id="node6" class="node">
<title>rescue</title>
<path fill="#eef3f8" stroke="#415a77" d="M167.91,-115.25C167.91,-115.25 12,-115.25 12,-115.25 6,-115.25 0,-109.25 0,-103.25 0,-103.25 0,-91.25 0,-91.25 0,-85.25 6,-79.25 12,-79.25 12,-79.25 167.91,-79.25 167.91,-79.25 173.91,-79.25 179.91,-85.25 179.91,-91.25 179.91,-91.25 179.91,-103.25 179.91,-103.25 179.91,-109.25 173.91,-115.25 167.91,-115.25" />
<text xml:space="preserve" text-anchor="middle" x="89.95" y="-93.55" font-family="DejaVu Sans" font-size="11.00">External Rescue V2 initramfs</text>
</g>

<g id="edge5" class="edge">
<title>kernel-&gt;rescue</title>
<path fill="none" stroke="#415a77" d="M105.43,-158.06C98.94,-153.92 93.17,-148.81 88.7,-142.5 85.49,-137.95 84.2,-132.44 83.99,-126.86" />
<polygon fill="#415a77" stroke="#415a77" points="87.46,-127.38 84.72,-117.15 80.48,-126.85 87.46,-127.38" />
<text xml:space="preserve" text-anchor="middle" x="166.33" y="-133.95" font-family="DejaVu Sans" font-size="9.00">OWNER HARDWARE OBSERVATION</text>
</g>

<g id="node7" class="node">
<title>normal</title>
<path fill="#eef3f8" stroke="#415a77" d="M318.78,-115.25C318.78,-115.25 231.12,-115.25 231.12,-115.25 225.12,-115.25 219.12,-109.25 219.12,-103.25 219.12,-103.25 219.12,-91.25 219.12,-91.25 219.12,-85.25 225.12,-79.25 231.12,-79.25 231.12,-79.25 318.78,-79.25 318.78,-79.25 324.78,-79.25 330.78,-85.25 330.78,-91.25 330.78,-91.25 330.78,-103.25 330.78,-103.25 330.78,-109.25 324.78,-115.25 318.78,-115.25" />
<text xml:space="preserve" text-anchor="middle" x="274.95" y="-93.55" font-family="DejaVu Sans" font-size="11.00">Normal SysV init</text>
</g>

<g id="edge6" class="edge">
<title>kernel-&gt;normal</title>
<path fill="none" stroke="#415a77" d="M223.59,-158.02C231.5,-153.63 239.36,-148.44 245.95,-142.5 251.51,-137.5 256.46,-131.2 260.63,-124.95" />
<polygon fill="#415a77" stroke="#415a77" points="263.49,-126.98 265.73,-116.62 257.53,-123.32 263.49,-126.98" />
<text xml:space="preserve" text-anchor="middle" x="279.68" y="-133.95" font-family="DejaVu Sans" font-size="9.00">FILE/CODE</text>
</g>

<g id="node8" class="node">
<title>owner</title>
<path fill="#eef3f8" stroke="#415a77" d="M343.53,-36C343.53,-36 206.38,-36 206.38,-36 200.38,-36 194.38,-30 194.38,-24 194.38,-24 194.38,-12 194.38,-12 194.38,-6 200.38,0 206.38,0 206.38,0 343.53,0 343.53,0 349.53,0 355.53,-6 355.53,-12 355.53,-12 355.53,-24 355.53,-24 355.53,-30 349.53,-36 343.53,-36" />
<text xml:space="preserve" text-anchor="middle" x="274.95" y="-14.3" font-family="DejaVu Sans" font-size="11.00">Separate owner S98 hook</text>
</g>

<g id="edge7" class="edge">
<title>normal-&gt;owner</title>
<path fill="none" stroke="#415a77" d="M274.95,-79.11C274.95,-69.87 274.95,-58.23 274.95,-47.66" />
<polygon fill="#415a77" stroke="#415a77" points="278.46,-47.88 274.96,-37.88 271.46,-47.88 278.46,-47.88" />
<text xml:space="preserve" text-anchor="middle" x="352.58" y="-54.7" font-family="DejaVu Sans" font-size="9.00">OWNER HARDWARE OBSERVATION</text>
</g>
</g>
</svg>
