<?xml version='1.0' encoding='utf-8'?>
<svg xmlns="http://www.w3.org/2000/svg" width="283pt" height="445pt" viewBox="0.00 0.00 283.00 445.00" role="img" aria-labelledby="figure-title figure-description">
<title id="figure-title">Observed rescue acquisition architecture</title><desc id="figure-description">Historical isolated Rescue V2 acquisition topology, not a normal LAN deployment. Solid arrows show the stated sequence or relationship; dashed arrows are conditional or unconfirmed. Form 3 Rescue V2 10.0.0.77/24; Pi service Ethernet 10.0.0.1/24; Pi separate Wi-Fi + authenticated SSH; Laptop new private image file; Exact size + independent source/receiver SHA256.</desc><g id="graph0" class="graph" transform="scale(1 1) rotate(0) translate(14.4 430.2)">
<title>G</title>
<polygon fill="white" stroke="none" points="-14.4,14.4 -14.4,-430.2 268.9,-430.2 268.9,14.4 -14.4,14.4" />
<text xml:space="preserve" text-anchor="middle" x="127.25" y="-395.65" font-family="DejaVu Sans" font-size="17.00">Observed rescue acquisition</text>
<text xml:space="preserve" text-anchor="middle" x="127.25" y="-374.65" font-family="DejaVu Sans" font-size="17.00">architecture</text>

<g id="node1" class="node">
<title>printer</title>
<path fill="#eef3f8" stroke="#415a77" d="M185.12,-365.8C185.12,-365.8 16.46,-365.8 16.46,-365.8 10.46,-365.8 4.46,-359.8 4.46,-353.8 4.46,-353.8 4.46,-341.8 4.46,-341.8 4.46,-335.8 10.46,-329.8 16.46,-329.8 16.46,-329.8 185.12,-329.8 185.12,-329.8 191.12,-329.8 197.12,-335.8 197.12,-341.8 197.12,-341.8 197.12,-353.8 197.12,-353.8 197.12,-359.8 191.12,-365.8 185.12,-365.8" />
<text xml:space="preserve" text-anchor="middle" x="100.79" y="-344.1" font-family="DejaVu Sans" font-size="11.00">Form 3 Rescue V2 10.0.0.77/24</text>
</g>

<g id="node2" class="node">
<title>pi</title>
<path fill="#eef3f8" stroke="#415a77" d="M184,-275.3C184,-275.3 17.59,-275.3 17.59,-275.3 11.59,-275.3 5.59,-269.3 5.59,-263.3 5.59,-263.3 5.59,-251.3 5.59,-251.3 5.59,-245.3 11.59,-239.3 17.59,-239.3 17.59,-239.3 184,-239.3 184,-239.3 190,-239.3 196,-245.3 196,-251.3 196,-251.3 196,-263.3 196,-263.3 196,-269.3 190,-275.3 184,-275.3" />
<text xml:space="preserve" text-anchor="middle" x="100.79" y="-253.6" font-family="DejaVu Sans" font-size="11.00">Pi service Ethernet 10.0.0.1/24</text>
</g>

<g id="edge1" class="edge">
<title>printer-&gt;pi</title>
<path fill="none" stroke="#415a77" d="M100.79,-329.32C100.79,-317.32 100.79,-301.11 100.79,-287.21" />
<polygon fill="#415a77" stroke="#415a77" points="104.29,-287.26 100.79,-277.26 97.29,-287.26 104.29,-287.26" />
<text xml:space="preserve" text-anchor="middle" x="164.17" y="-305.25" font-family="DejaVu Sans" font-size="9.00">isolated direct Ethernet / nc</text>
<text xml:space="preserve" text-anchor="middle" x="164.17" y="-294" font-family="DejaVu Sans" font-size="9.00">stream</text>
</g>

<g id="node3" class="node">
<title>wifi</title>
<path fill="#eef3f8" stroke="#415a77" d="M151,-184.8C151,-184.8 50.59,-184.8 50.59,-184.8 44.58,-184.8 38.59,-178.8 38.59,-172.8 38.59,-172.8 38.59,-155.4 38.59,-155.4 38.59,-149.4 44.59,-143.4 50.59,-143.4 50.59,-143.4 151,-143.4 151,-143.4 157,-143.4 163,-149.4 163,-155.4 163,-155.4 163,-172.8 163,-172.8 163,-178.8 157,-184.8 151,-184.8" />
<text xml:space="preserve" text-anchor="middle" x="100.79" y="-167.15" font-family="DejaVu Sans" font-size="11.00">Pi separate Wi-Fi +</text>
<text xml:space="preserve" text-anchor="middle" x="100.79" y="-153.65" font-family="DejaVu Sans" font-size="11.00">authenticated SSH</text>
</g>

<g id="edge2" class="edge">
<title>pi-&gt;wifi</title>
<path fill="none" stroke="#415a77" d="M100.79,-239.15C100.79,-227.13 100.79,-210.74 100.79,-196.42" />
<polygon fill="#415a77" stroke="#415a77" points="104.29,-196.55 100.79,-186.55 97.29,-196.55 104.29,-196.55" />
<text xml:space="preserve" text-anchor="middle" x="175.42" y="-214.75" font-family="DejaVu Sans" font-size="9.00">stdout through SSH; no 16 GB Pi</text>
<text xml:space="preserve" text-anchor="middle" x="175.42" y="-203.5" font-family="DejaVu Sans" font-size="9.00">storage</text>
</g>

<g id="node4" class="node">
<title>laptop</title>
<path fill="#eef3f8" stroke="#415a77" d="M181,-110.4C181,-110.4 20.59,-110.4 20.59,-110.4 14.59,-110.4 8.59,-104.4 8.59,-98.4 8.59,-98.4 8.59,-86.4 8.59,-86.4 8.59,-80.4 14.59,-74.4 20.59,-74.4 20.59,-74.4 181,-74.4 181,-74.4 187,-74.4 193,-80.4 193,-86.4 193,-86.4 193,-98.4 193,-98.4 193,-104.4 187,-110.4 181,-110.4" />
<text xml:space="preserve" text-anchor="middle" x="100.79" y="-88.7" font-family="DejaVu Sans" font-size="11.00">Laptop new private image file</text>
</g>

<g id="edge3" class="edge">
<title>wifi-&gt;laptop</title>
<path fill="none" stroke="#415a77" d="M100.79,-142.94C100.79,-136.35 100.79,-128.89 100.79,-121.81" />
<polygon fill="#415a77" stroke="#415a77" points="104.29,-121.96 100.79,-111.96 97.29,-121.96 104.29,-121.96" />
</g>

<g id="node5" class="node">
<title>hash</title>
<path fill="#eef3f8" stroke="#415a77" d="M169.37,-41.4C169.37,-41.4 32.21,-41.4 32.21,-41.4 26.21,-41.4 20.21,-35.4 20.21,-29.4 20.21,-29.4 20.21,-12 20.21,-12 20.21,-6 26.21,0 32.21,0 32.21,0 169.37,0 169.37,0 175.37,0 181.37,-6 181.37,-12 181.37,-12 181.37,-29.4 181.37,-29.4 181.37,-35.4 175.37,-41.4 169.37,-41.4" />
<text xml:space="preserve" text-anchor="middle" x="100.79" y="-23.75" font-family="DejaVu Sans" font-size="11.00">Exact size + independent</text>
<text xml:space="preserve" text-anchor="middle" x="100.79" y="-10.25" font-family="DejaVu Sans" font-size="11.00">source/receiver SHA256</text>
</g>

<g id="edge4" class="edge">
<title>laptop-&gt;hash</title>
<path fill="none" stroke="#415a77" d="M100.79,-74.17C100.79,-67.79 100.79,-60.35 100.79,-53.1" />
<polygon fill="#415a77" stroke="#415a77" points="104.29,-53.21 100.79,-43.21 97.29,-53.21 104.29,-53.21" />
</g>
</g>
</svg>
