<?xml version="1.0" encoding="UTF-8" standalone="no"?>
<!DOCTYPE svg PUBLIC "-//W3C//DTD SVG 1.1//EN"
 "http://www.w3.org/Graphics/SVG/1.1/DTD/svg11.dtd">
<!-- Generated by graphviz version 14.1.2 (0)
 -->
<!-- Title: G Pages: 1 -->
<svg role="img" aria-labelledby="figure-title figure-desc" width="959pt" height="263pt"
 viewBox="0.00 0.00 959.00 263.00" xmlns="http://www.w3.org/2000/svg" xmlns:xlink="http://www.w3.org/1999/xlink">
<title id="figure-title">Privacy policy boundaries</title>
<desc id="figure-desc">Cloud minimization is a version-tested proposal, not an applied green status. Blocking network access does not erase queued or previously transmitted data.</desc>
<g id="graph0" class="graph" transform="scale(1 1) rotate(0) translate(14.4 248.7)">
<title>G</title>
<polygon fill="white" stroke="none" points="-14.4,14.4 -14.4,-248.7 944.65,-248.7 944.65,14.4 -14.4,14.4"/>
<text xml:space="preserve" text-anchor="middle" x="465.12" y="-214.15" font-family="DejaVu Sans" font-size="17.00">Privacy policy boundaries</text>
<!-- printer -->
<g id="node1" class="node">
<title>printer</title>
<path fill="#eef3f8" stroke="#415a77" d="M270.53,-205.3C270.53,-205.3 114.62,-205.3 114.62,-205.3 108.62,-205.3 102.62,-199.3 102.62,-193.3 102.62,-193.3 102.62,-175.9 102.62,-175.9 102.62,-169.9 108.62,-163.9 114.62,-163.9 114.62,-163.9 270.53,-163.9 270.53,-163.9 276.53,-163.9 282.53,-169.9 282.53,-175.9 282.53,-175.9 282.53,-193.3 282.53,-193.3 282.53,-199.3 276.53,-205.3 270.53,-205.3"/>
<text xml:space="preserve" text-anchor="middle" x="192.58" y="-187.65" font-family="DejaVu Sans" font-size="11.00">Printer local state / logs / job</text>
<text xml:space="preserve" text-anchor="middle" x="192.58" y="-174.15" font-family="DejaVu Sans" font-size="11.00">status</text>
</g>
<!-- optional -->
<g id="node2" class="node">
<title>optional</title>
<path fill="#eef3f8" stroke="#415a77" d="M155.16,-120.65C155.16,-120.65 12,-120.65 12,-120.65 6,-120.65 0,-114.65 0,-108.65 0,-108.65 0,-91.25 0,-91.25 0,-85.25 6,-79.25 12,-79.25 12,-79.25 155.16,-79.25 155.16,-79.25 161.16,-79.25 167.16,-85.25 167.16,-91.25 167.16,-91.25 167.16,-108.65 167.16,-108.65 167.16,-114.65 161.16,-120.65 155.16,-120.65"/>
<text xml:space="preserve" text-anchor="middle" x="83.58" y="-103" font-family="DejaVu Sans" font-size="11.00">Optional collection/privacy</text>
<text xml:space="preserve" text-anchor="middle" x="83.58" y="-89.5" font-family="DejaVu Sans" font-size="11.00">settings</text>
</g>
<!-- printer&#45;&gt;optional -->
<g id="edge1" class="edge">
<title>printer&#45;&gt;optional</title>
<path fill="none" stroke="#415a77" d="M166.19,-163.59C151.97,-152.81 134.24,-139.36 118.85,-127.69"/>
<polygon fill="#415a77" stroke="#415a77" points="121.39,-125.23 111.31,-121.97 117.16,-130.8 121.39,-125.23"/>
</g>
<!-- gateway -->
<g id="node3" class="node">
<title>gateway</title>
<path fill="#eef3f8" stroke="#415a77" d="M403.28,-120.65C403.28,-120.65 203.88,-120.65 203.88,-120.65 197.88,-120.65 191.88,-114.65 191.88,-108.65 191.88,-108.65 191.88,-91.25 191.88,-91.25 191.88,-85.25 197.88,-79.25 203.88,-79.25 203.88,-79.25 403.28,-79.25 403.28,-79.25 409.28,-79.25 415.28,-85.25 415.28,-91.25 415.28,-91.25 415.28,-108.65 415.28,-108.65 415.28,-114.65 409.28,-120.65 403.28,-120.65"/>
<text xml:space="preserve" text-anchor="middle" x="303.58" y="-103" font-family="DejaVu Sans" font-size="11.00">Cloud gateway / Dashboard / remote</text>
<text xml:space="preserve" text-anchor="middle" x="303.58" y="-89.5" font-family="DejaVu Sans" font-size="11.00">printing</text>
</g>
<!-- printer&#45;&gt;gateway -->
<g id="edge2" class="edge">
<title>printer&#45;&gt;gateway</title>
<path fill="none" stroke="#415a77" stroke-dasharray="5,2" d="M219.45,-163.59C233.93,-152.81 251.99,-139.36 267.67,-127.69"/>
<polygon fill="#415a77" stroke="#415a77" points="269.43,-130.74 275.36,-121.96 265.25,-125.13 269.43,-130.74"/>
<text xml:space="preserve" text-anchor="middle" x="357.48" y="-139.35" font-family="DejaVu Sans" font-size="9.00">required status may include usage/identifiers</text>
</g>
<!-- cloud -->
<g id="node4" class="node">
<title>cloud</title>
<path fill="#eef3f8" stroke="#415a77" d="M500.16,-36C500.16,-36 381,-36 381,-36 375,-36 369,-30 369,-24 369,-24 369,-12 369,-12 369,-6 375,0 381,0 381,0 500.16,0 500.16,0 506.16,0 512.16,-6 512.16,-12 512.16,-12 512.16,-24 512.16,-24 512.16,-30 506.16,-36 500.16,-36"/>
<text xml:space="preserve" text-anchor="middle" x="440.58" y="-14.3" font-family="DejaVu Sans" font-size="11.00">Manufacturer services</text>
</g>
<!-- optional&#45;&gt;cloud -->
<g id="edge3" class="edge">
<title>optional&#45;&gt;cloud</title>
<path fill="none" stroke="#415a77" stroke-dasharray="5,2" d="M117.28,-78.9C135.02,-69.25 157.46,-58.42 178.83,-52 237.07,-34.51 305.3,-26.29 357.49,-22.42"/>
<polygon fill="#415a77" stroke="#415a77" points="357.47,-25.93 367.2,-21.75 356.98,-18.95 357.47,-25.93"/>
<text xml:space="preserve" text-anchor="middle" x="242.2" y="-54.7" font-family="DejaVu Sans" font-size="9.00">only if verified enabled path</text>
</g>
<!-- gateway&#45;&gt;cloud -->
<g id="edge4" class="edge">
<title>gateway&#45;&gt;cloud</title>
<path fill="none" stroke="#415a77" d="M306.06,-78.8C308.2,-69.48 312.17,-58.96 319.58,-52 330.33,-41.9 343.86,-34.84 357.95,-29.91"/>
<polygon fill="#415a77" stroke="#415a77" points="358.84,-33.29 367.35,-26.99 356.76,-26.61 358.84,-33.29"/>
<text xml:space="preserve" text-anchor="middle" x="409.58" y="-54.7" font-family="DejaVu Sans" font-size="9.00">cloud mode retains residual information</text>
</g>
<!-- host -->
<g id="node5" class="node">
<title>host</title>
<path fill="#eef3f8" stroke="#415a77" d="M641.03,-120.65C641.03,-120.65 452.12,-120.65 452.12,-120.65 446.12,-120.65 440.12,-114.65 440.12,-108.65 440.12,-108.65 440.12,-91.25 440.12,-91.25 440.12,-85.25 446.12,-79.25 452.12,-79.25 452.12,-79.25 641.03,-79.25 641.03,-79.25 647.03,-79.25 653.03,-85.25 653.03,-91.25 653.03,-91.25 653.03,-108.65 653.03,-108.65 653.03,-114.65 647.03,-120.65 641.03,-120.65"/>
<text xml:space="preserve" text-anchor="middle" x="546.58" y="-103" font-family="DejaVu Sans" font-size="11.00">PreForm computer / host&#45;mediated</text>
<text xml:space="preserve" text-anchor="middle" x="546.58" y="-89.5" font-family="DejaVu Sans" font-size="11.00">paths</text>
</g>
<!-- host&#45;&gt;cloud -->
<g id="edge5" class="edge">
<title>host&#45;&gt;cloud</title>
<path fill="none" stroke="#415a77" stroke-dasharray="5,2" d="M532.09,-79.1C524.83,-70.07 515.49,-59.71 505.58,-52 501.02,-48.45 496.01,-45.11 490.86,-42.03"/>
<polygon fill="#415a77" stroke="#415a77" points="492.63,-39.01 482.2,-37.16 489.2,-45.11 492.63,-39.01"/>
<text xml:space="preserve" text-anchor="middle" x="595.4" y="-54.7" font-family="DejaVu Sans" font-size="9.00">printer&#45;only blocking is insufficient</text>
</g>
<!-- fence -->
<g id="node6" class="node">
<title>fence</title>
<path fill="#eef3f8" stroke="#415a77" d="M859.28,-120.65C859.28,-120.65 689.87,-120.65 689.87,-120.65 683.87,-120.65 677.87,-114.65 677.87,-108.65 677.87,-108.65 677.87,-91.25 677.87,-91.25 677.87,-85.25 683.87,-79.25 689.87,-79.25 689.87,-79.25 859.28,-79.25 859.28,-79.25 865.28,-79.25 871.28,-85.25 871.28,-91.25 871.28,-91.25 871.28,-108.65 871.28,-108.65 871.28,-114.65 865.28,-120.65 859.28,-120.65"/>
<text xml:space="preserve" text-anchor="middle" x="774.58" y="-103" font-family="DejaVu Sans" font-size="11.00">Independent local&#45;only network</text>
<text xml:space="preserve" text-anchor="middle" x="774.58" y="-89.5" font-family="DejaVu Sans" font-size="11.00">boundary</text>
</g>
<!-- fence&#45;&gt;cloud -->
<g id="edge6" class="edge">
<title>fence&#45;&gt;cloud</title>
<path fill="none" stroke="#415a77" stroke-dasharray="5,2" d="M740.5,-78.77C722.88,-69.21 700.68,-58.48 679.58,-52 629.09,-36.49 570.35,-28.25 523.74,-23.88"/>
<polygon fill="#415a77" stroke="#415a77" points="524.25,-20.42 513.97,-23.02 523.63,-27.39 524.25,-20.42"/>
<text xml:space="preserve" text-anchor="middle" x="818.5" y="-54.7" font-family="DejaVu Sans" font-size="9.00">local&#45;only blocks egress; removes cloud functions</text>
</g>
</g>
</svg>
